<svg xmlns="http://www.w3.org/2000/svg" viewBox="0 0 64 64" fill="none"><rect width="64" height="64" rx="14" fill="#1D63ED"/><g transform="translate(10,12)"><rect x="4" y="0" width="14" height="10" rx="2" stroke="#fff" stroke-width="2" fill="none"/><rect x="20" y="3" width="14" height="9" rx="2" stroke="#fff" stroke-width="2" fill="none"/><path d="M2 18c0-5 4-9 9-9h18c5 0 10 3 12 7l2 2c1 1 1 3-1 4H3c-1 0-2-1-1-3v-1z" fill="#fff"/><circle cx="33" cy="14" r="3" stroke="#1D63ED" stroke-width="1.6" fill="none"/><circle cx="33.8" cy="14" r="1.2" fill="#1D63ED"/><line x1="39" y1="12" x2="43" y2="12" stroke="#fff" stroke-width="1.6" stroke-linecap="round"/><line x1="40" y1="15" x2="44" y2="15" stroke="#fff" stroke-width="1.6" stroke-linecap="round"/></g></svg>
